<svg width="200" height="200" viewBox="0 0 200 200" xmlns="http://www.w3.org/2000/svg">
  <!-- 고양이 몸통 -->
  <ellipse cx="100" cy="130" rx="50" ry="60" fill="#FFA500" stroke="#FF8C00" stroke-width="2"/>

  <!-- 고양이 머리 -->
  <circle cx="100" cy="70" r="40" fill="#FFA500" stroke="#FF8C00" stroke-width="2"/>

  <!-- 왼쪽 귀 -->
  <path d="M 70 50 L 65 20 L 80 35 Z" fill="#FFA500" stroke="#FF8C00" stroke-width="2"/>

  <!-- 오른쪽 귀 -->
  <path d="M 130 50 L 135 20 L 120 35 Z" fill="#FFA500" stroke="#FF8C00" stroke-width="2"/>

  <!-- 왼쪽 귀 안쪽 -->
  <path d="M 72 45 L 70 30 L 77 38 Z" fill="#FFB84D"/>

  <!-- 오른쪽 귀 안쪽 -->
  <path d="M 128 45 L 130 30 L 123 38 Z" fill="#FFB84D"/>

  <!-- 왼쪽 눈 -->
  <ellipse cx="85" cy="65" rx="8" ry="12" fill="#000"/>
  <ellipse cx="87" cy="62" rx="3" ry="4" fill="#FFF"/>

  <!-- 오른쪽 눈 -->
  <ellipse cx="115" cy="65" rx="8" ry="12" fill="#000"/>
  <ellipse cx="117" cy="62" rx="3" ry="4" fill="#FFF"/>

  <!-- 코 -->
  <path d="M 100 75 L 95 80 L 100 82 L 105 80 Z" fill="#FF69B4"/>

  <!-- 입 -->
  <path d="M 100 82 Q 90 87 85 82" fill="none" stroke="#000" stroke-width="2" stroke-linecap="round"/>
  <path d="M 100 82 Q 110 87 115 82" fill="none" stroke="#000" stroke-width="2" stroke-linecap="round"/>

  <!-- 왼쪽 수염 -->
  <line x1="50" y1="65" x2="20" y2="60" stroke="#000" stroke-width="1.5" stroke-linecap="round"/>
  <line x1="50" y1="75" x2="20" y2="75" stroke="#000" stroke-width="1.5" stroke-linecap="round"/>
  <line x1="50" y1="85" x2="20" y2="90" stroke="#000" stroke-width="1.5" stroke-linecap="round"/>

  <!-- 오른쪽 수염 -->
  <line x1="150" y1="65" x2="180" y2="60" stroke="#000" stroke-width="1.5" stroke-linecap="round"/>
  <line x1="150" y1="75" x2="180" y2="75" stroke="#000" stroke-width="1.5" stroke-linecap="round"/>
  <line x1="150" y1="85" x2="180" y2="90" stroke="#000" stroke-width="1.5" stroke-linecap="round"/>

  <!-- 왼쪽 앞발 -->
  <ellipse cx="75" cy="170" rx="15" ry="25" fill="#FFA500" stroke="#FF8C00" stroke-width="2"/>
  <ellipse cx="75" cy="185" rx="12" ry="8" fill="#FF69B4"/>

  <!-- 오른쪽 앞발 -->
  <ellipse cx="125" cy="170" rx="15" ry="25" fill="#FFA500" stroke="#FF8C00" stroke-width="2"/>
  <ellipse cx="125" cy="185" rx="12" ry="8" fill="#FF69B4"/>

  <!-- 꼬리 -->
  <path d="M 140 130 Q 170 120 165 80 Q 160 50 170 30" fill="none" stroke="#FFA500" stroke-width="25" stroke-linecap="round"/>
  <path d="M 140 130 Q 170 120 165 80 Q 160 50 170 30" fill="none" stroke="#FF8C00" stroke-width="2" stroke-linecap="round"/>

  <!-- 배 무늬 -->
  <ellipse cx="100" cy="130" rx="30" ry="40" fill="#FFD700" opacity="0.6"/>
</svg>